<?xml version="1.0" encoding="UTF-8"?><svg id="Layer_1" xmlns="http://www.w3.org/2000/svg" viewBox="0 0 90 90"><defs><style>.cls-1{fill:#fff;}.cls-1,.cls-2,.cls-3,.cls-4,.cls-5,.cls-6,.cls-7{stroke-width:0px;}.cls-2{fill:#00c9c2;}.cls-3{fill:#00d1cb;}.cls-4{fill:#00bab3;}.cls-5{fill:#00c5be;}.cls-6{fill:#009a91;}.cls-7{fill:#00b0a7;}</style></defs><polyline class="cls-6" points="77.27 57.52 88.43 57.52 83.65 63.92 88.43 69.64 77.27 69.64"/><polygon class="cls-1" points="90 70.37 77.27 70.37 77.27 68.91 86.87 68.91 82.72 63.95 86.98 58.25 77.27 58.25 77.27 56.78 89.89 56.78 84.59 63.9 90 70.37"/><polyline class="cls-6" points="12.73 57.52 1.57 57.52 6.35 63.92 1.57 69.64 12.73 69.64"/><polygon class="cls-1" points="0 70.37 12.73 70.37 12.73 68.91 3.13 68.91 7.28 63.95 3.02 58.25 12.73 58.25 12.73 56.78 .11 56.78 5.41 63.9 0 70.37"/><polygon class="cls-6" points="82.57 47.62 79.29 50.28 81.53 53.85 77.86 55.93 79.48 59.82 75.52 61.27 76.47 65.38 72.33 66.15 72.59 70.36 71.9 70.37 68.38 70.43 67.95 74.63 63.77 74.02 62.66 78.09 58.65 76.8 56.88 80.63 53.14 78.69 50.76 82.18 47.38 79.65 44.46 82.69 41.55 79.65 38.17 82.18 35.8 78.69 34.17 79.53 32.05 80.63 30.28 76.8 26.27 78.09 25.16 74.02 20.98 74.63 20.56 70.44 16.34 70.36 16.61 66.15 12.46 65.38 13.41 61.27 9.45 59.82 11.07 55.93 7.4 53.85 9.64 50.28 6.37 47.62 9.16 44.46 6.37 41.31 9.64 38.65 7.4 35.08 8.5 34.45 11.07 33 9.45 29.1 13.41 27.66 12.46 23.55 16.61 22.78 16.34 18.57 20.56 18.49 20.98 14.29 25.16 14.91 26.27 10.84 30.28 12.12 32.05 8.3 35.8 10.23 38.17 6.75 41.55 9.28 41.86 8.95 44.46 6.23 47.38 9.28 50.76 6.75 53.14 10.23 56.88 8.3 58.65 12.12 62.66 10.84 63.77 14.91 67.95 14.29 68.38 18.49 72.59 18.57 72.32 22.78 76.47 23.55 75.52 27.66 79.48 29.1 77.86 33 81.53 35.08 79.29 38.65 82.57 41.31 79.77 44.46 82.57 47.62"/><path class="cls-7" d="m63.58,43.17c0,3.73-1.03,7.21-2.82,10.19-2.61-1.27-5.54-1.98-8.64-1.98-7.2,0-13.51,3.85-16.97,9.6-6.6-3.21-11.16-9.98-11.16-17.82,0-.65.03-1.3.09-1.94,10.5-.05,19.18-7.76,20.74-17.83,10.45.54,18.75,9.18,18.75,19.77Z"/><path class="cls-3" d="m60.76,53.36c-3.46,5.76-9.77,9.6-16.97,9.6-3.09,0-6.02-.71-8.64-1.98,3.46-5.76,9.77-9.6,16.97-9.6,3.09,0,6.02.71,8.64,1.98Z"/><path class="cls-5" d="m71.9,70.37l-3.52.07-.43,4.2-4.17-.61-1.11,4.07-4.02-1.29-1.77,3.83-3.75-1.94-2.38,3.48-3.38-2.53-2.92,3.04-2.92-3.04-3.38,2.53-2.38-3.48-1.62.84c-1.19-2.54-1.85-5.37-1.85-8.36,0-3.73,1.03-7.21,2.82-10.19,2.61,1.27,5.54,1.98,8.64,1.98,7.2,0,13.51-3.85,16.97-9.6,6.38,3.09,10.84,9.51,11.14,17.01Z"/><path class="cls-4" d="m45.08,20.14c0,1.11-.08,2.2-.25,3.26-.35-.02-.69-.03-1.04-.03-10.28,0-18.73,7.83-19.7,17.86h-.09c-6.12,0-11.64-2.61-15.49-6.78l2.56-1.45-1.62-3.89,3.96-1.44-.95-4.11,4.15-.77-.27-4.21,4.22-.08.42-4.2,4.17.61,1.11-4.07,4.02,1.29,1.77-3.83,3.75,1.94,2.38-3.48,3.38,2.53.31-.33c2.04,3.24,3.21,7.08,3.21,11.19Z"/><path class="cls-2" d="m44.83,23.4c-1.56,10.07-10.25,17.78-20.74,17.83.97-10.02,9.42-17.86,19.7-17.86.35,0,.7,0,1.04.03Z"/><path class="cls-1" d="m44.47,83.12l-2.95-3.08-3.41,2.56-2.4-3.52-3.79,1.96-1.79-3.87-4.06,1.3-1.12-4.11-4.22.62-.43-4.24-4.26-.08.27-4.26-4.19-.78.96-4.15-4.01-1.46,1.64-3.94-3.71-2.1,2.27-3.61-3.31-2.69,2.83-3.19-2.83-3.19,3.31-2.69-2.27-3.61,3.71-2.1-1.64-3.94,4.01-1.46-.96-4.15,4.19-.78-.27-4.26,4.26-.08.43-4.24,4.22.62,1.12-4.11,4.06,1.3,1.79-3.87,3.79,1.96,2.4-3.52,3.41,2.56,2.95-3.08,2.95,3.08,3.41-2.56,2.4,3.52,3.79-1.96,1.79,3.87,4.06-1.3,1.12,4.11,4.22-.62.43,4.24,4.26.08-.27,4.26,4.19.78-.96,4.15,4.01,1.46-1.64,3.94,3.71,2.1-2.27,3.61,3.31,2.69-2.83,3.19,2.83,3.19-3.31,2.69,2.27,3.61-3.71,2.1,1.64,3.94-4.01,1.46.96,4.15-4.19.78.27,4.26-4.26.08-.43,4.24-4.22-.62-1.12,4.11-4.06-1.3-1.79,3.87-3.79-1.96-2.4,3.52-3.41-2.56-2.95,3.08Zm-2.89-3.86l2.89,3.01,2.89-3.01,3.34,2.5,2.35-3.45,3.7,1.92,1.75-3.79,3.97,1.28,1.1-4.02,4.13.6.42-4.15,4.17-.08-.26-4.16,4.1-.76-.94-4.06,3.92-1.43-1.6-3.85,3.63-2.06-2.22-3.53,3.24-2.63-2.77-3.12,2.77-3.12-3.24-2.63,2.22-3.53-3.63-2.06,1.6-3.85-3.92-1.43.94-4.06-4.1-.76.26-4.16-4.17-.08-.42-4.15-4.13.6-1.1-4.02-3.97,1.28-1.75-3.79-3.7,1.92-2.35-3.45-3.34,2.5-2.89-3.01-2.89,3.01-3.34-2.5-2.35,3.45-3.7-1.92-1.75,3.79-3.97-1.28-1.1,4.02-4.13-.6-.42,4.15-4.17.08.26,4.16-4.1.76.94,4.06-3.92,1.43,1.6,3.85-3.63,2.06,2.22,3.53-3.24,2.63,2.77,3.12-2.77,3.12,3.24,2.63-2.22,3.53,3.63,2.06-1.6,3.85,3.92,1.43-.94,4.06,4.1.76-.26,4.16,4.17.08.42,4.15,4.13-.6,1.1,4.02,3.97-1.28,1.75,3.79,3.7-1.92,2.35,3.45,3.34-2.5Z"/><path class="cls-1" d="m24.48,27.43s.78.03,1.26-.48c.26-.28.34-.66.06-.93-.62-.58-2.17,1.18-3.31.12-.59-.55-.54-1.47.11-2.18.4-.43,1.21-.89,1.73-.41l.34.32-.57.6-.16-.15c-.17-.16-.51-.02-.73.22-.29.31-.34.68-.11.9.62.58,2.1-1.24,3.3-.13.58.54.65,1.45-.06,2.21-.75.8-1.74.72-1.74.72l-.12-.82Z"/><path class="cls-1" d="m26.78,22.05c.36-.29,1.13-.66,1.52-.18l.26.33-.61.49-.12-.15c-.12-.15-.41-.03-.58.1-.48.39-.53,1.03-.13,1.54.46.57,1.11.52,1.56.16.48-.38.53-1.04.53-1.04l.68.25s-.01.84-.78,1.45c-.92.74-2.04.56-2.69-.25-.63-.79-.6-1.92.36-2.69Z"/><path class="cls-1" d="m29.15,21.55c-.06-.09-.13-.1-.21-.05l-.24.15-.4-.65.69-.43c.27-.17.48-.14.64.12l.11.18c.07.11.11.2.11.2h.01c-.13-.53.02-1.1.48-1.39.07-.04.14-.07.14-.07l.46.75s-.09.04-.19.1c-.32.2-.58.61-.44,1.15.05.18.13.36.24.54l.75,1.21-.75.47-1.4-2.27Z"/><path class="cls-1" d="m31.68,20.02c-.04-.1-.11-.12-.2-.08l-.26.11-.31-.69.78-.34c.3-.13.49-.06.62.24l.67,1.51c.18.4.4.62.8.44.59-.26.69-.93.43-1.51l-.66-1.5.82-.36,1.08,2.45c.04.09.11.12.2.08l.26-.11.3.69-.75.33c-.28.12-.49.06-.59-.18l-.04-.09c-.03-.08-.06-.15-.06-.15h-.01c0,.41-.27.94-.83,1.19-.7.31-1.29.15-1.68-.75l-.56-1.27Z"/><path class="cls-1" d="m35.94,18.17c-.02-.1-.09-.14-.18-.12l-.28.06-.15-.74.81-.17c.31-.06.49.05.54.3l.02.1c.02.08.02.15.02.15h.01c.09-.38.43-.85.98-.97.53-.11.93.07,1.18.51h.01c.11-.42.49-.86,1.05-.97.73-.15,1.23.17,1.43,1.1l.29,1.37c.02.1.09.14.18.12l.27-.06.15.74-.83.17c-.33.07-.5-.04-.57-.37l-.34-1.62c-.08-.4-.22-.69-.63-.6-.43.09-.67.52-.67.98-.01.15,0,.29.04.46l.32,1.54-.87.18-.44-2.09c-.08-.38-.2-.69-.62-.6-.44.09-.66.52-.68.99,0,.14,0,.29.04.45l.32,1.54-.87.18-.54-2.61Z"/><path class="cls-1" d="m43.75,18.83h.11c.12.02.18,0,.23-.13l1.77-3.94.96.07,1.18,4.15c.03.13.09.16.21.17h.11s-.06.79-.06.79l-.55-.04c-.35-.03-.47-.13-.56-.45l-.25-.89-1.68-.12-.37.85c-.13.31-.26.39-.61.36l-.55-.04.06-.78Zm3.01-1.05l-.34-1.28c-.07-.28-.14-.76-.14-.76h-.01s-.14.46-.25.73l-.52,1.22,1.26.09Z"/><path class="cls-1" d="m49.35,16.09c.02-.1-.03-.16-.12-.18l-.28-.05.15-.74.83.17c.32.06.44.24.38.56l-.7,3.54c-.02.1.03.16.12.18l.27.05-.15.74-.83-.16c-.33-.07-.44-.23-.38-.56l.7-3.53Z"/><path class="cls-1" d="m51.37,16.53c.03-.1-.01-.16-.11-.19l-.27-.07.2-.73.82.23c.32.09.42.27.33.59l-.96,3.48c-.03.09.01.16.11.19l.26.07-.2.72-.81-.22c-.33-.09-.42-.26-.33-.59l.95-3.47Z"/><path class="cls-1" d="m52.94,18.47c.04-.1,0-.16-.09-.2l-.27-.09.25-.71.8.29c.31.11.39.3.28.61l-.74,2.07c-.03.09,0,.16.09.2l.27.09-.25.71-.8-.29c-.31-.11-.4-.29-.28-.61l.74-2.07Zm.82-2.17l.73.26-.28.77-.73-.26.28-.77Z"/><path class="cls-1" d="m56.28,20.33l.1.05v-.03c.24-.46.14-.72-.27-.92-.15-.07-.45-.17-.53,0l-.08.17-.75-.36.17-.34c.29-.6,1.17-.25,1.5-.09,1.07.52,1.12,1.24.77,1.96l-.58,1.2c-.04.09-.02.16.07.21l.25.12-.33.68-.72-.35c-.3-.14-.33-.36-.24-.55.04-.08.07-.14.07-.14h-.01s-.52.44-1.25.09c-.57-.28-.92-.89-.61-1.54.49-1.01,1.92-.42,2.45-.16Zm-1.33,1.17c.43.21.95-.1,1.14-.49l.04-.08-.14-.07c-.42-.2-1.11-.47-1.33-.02-.1.21-.04.49.28.65Z"/><path class="cls-1" d="m58.43,20.98c.06-.09.04-.16-.04-.22l-.23-.16.43-.62.67.47c.26.18.3.39.16.6l-.06.09c-.04.06-.1.12-.1.12h.01c.3-.15.87-.29,1.46.12.65.45.79,1.06.24,1.83l-.8,1.15c-.06.08-.04.16.04.22l.23.16-.43.62-.7-.49c-.28-.19-.31-.39-.12-.67l.94-1.35c.25-.36.33-.66-.04-.92-.39-.27-.86-.23-1.21.05-.12.09-.23.21-.33.35l-.94,1.35-.73-.51,1.53-2.19Z"/><path class="cls-1" d="m63.94,24.08c.34.32.81,1.04.38,1.48l-.29.3-.57-.54.14-.14c.14-.14-.02-.41-.18-.56-.45-.43-1.09-.39-1.54.07-.5.53-.37,1.17.05,1.57.44.42,1.1.38,1.1.38l-.16.7s-.83.1-1.54-.58c-.85-.82-.82-1.94-.11-2.7.7-.73,1.82-.85,2.71,0Z"/><path class="cls-1" d="m66.49,26.92c.63.81.39,1.71-.36,2.3-.08.07-.27.19-.27.19l-1.53-1.94c-.45.45-.43,1.01-.09,1.44.36.45.94.54.94.54l-.26.67s-.76-.1-1.32-.8c-.73-.93-.52-2.04.29-2.67.87-.68,1.94-.57,2.6.27Zm-.69,1.4c.33-.28.38-.69.15-.98-.28-.36-.7-.44-1.11-.24l.96,1.22Z"/><path class="cls-1" d="m44.47,12.76c8.47,0,16.43,3.3,22.42,9.29,5.99,5.99,9.29,13.95,9.29,22.42s-3.3,16.43-9.29,22.42c-5.99,5.99-13.95,9.29-22.42,9.29s-16.43-3.3-22.42-9.29c-5.99-5.99-9.29-13.95-9.29-22.42s3.3-16.43,9.29-22.42c5.99-5.99,13.95-9.29,22.42-9.29m0-.88c-18,0-32.58,14.59-32.58,32.58s14.59,32.58,32.58,32.58,32.58-14.59,32.58-32.58S62.46,11.88,44.47,11.88h0Z"/><path class="cls-6" d="m74.25,71.8c-.2,0-.4-.04-.59-.11-3.8-1.42-13.89-5.21-28.88-5.26h-.71c-13.73,0-21.96,1.31-27.52,4.38-.27.15-.57.22-.87.22-.45,0-.87-.17-1.2-.47-1.96-1.79-3.44-3.75-4.31-7.51-.14-.59.05-1.2.49-1.6,1.93-1.77,9.97-7.56,32.26-7.56.56,0,1.13,0,1.71.01,23.84.31,32.33,6.38,34.36,8.23.36.32.55.79.53,1.27-.05,1.46-.57,5.17-4.23,8.02-.3.23-.67.36-1.05.36Z"/><path class="cls-1" d="m42.92,54.65c.56,0,1.13,0,1.7.01,24.04.31,32.31,6.61,33.88,8.04.2.18.3.43.29.7-.04,1.2-.48,4.77-3.94,7.47-.17.14-.39.21-.6.21-.11,0-.23-.02-.34-.06-4.27-1.6-14.34-5.25-29.13-5.3-.24,0-.48,0-.72,0-14.37,0-22.35,1.42-27.87,4.47-.16.09-.34.13-.51.13-.26,0-.51-.09-.71-.27-1.68-1.53-3.21-3.34-4.09-7.13-.08-.33.02-.67.27-.9,1.71-1.57,9.53-7.37,31.77-7.37m0-1.46v1.46-1.46c-9.63,0-17.72,1.07-24.05,3.17-5.08,1.69-7.64,3.59-8.71,4.58-.63.58-.9,1.47-.71,2.31.91,3.94,2.47,6,4.53,7.88.46.42,1.07.66,1.7.66.43,0,.85-.11,1.22-.32,5.44-3.01,13.57-4.29,27.17-4.29.23,0,.47,0,.71,0,14.85.05,24.86,3.8,28.63,5.21.27.1.56.15.85.15.54,0,1.07-.18,1.5-.52,3.9-3.04,4.45-7,4.51-8.57.03-.7-.26-1.37-.77-1.84-2.08-1.9-10.75-8.11-34.85-8.42-.58,0-1.16-.01-1.72-.01h0Z"/><path class="cls-1" d="m18.75,60.59l-.59.15-.14-.56,2.71-.67c1.07-.27,2.01.25,2.29,1.36.25.99-.22,1.72-.81,2.02v.02s.15.04.29.2l1.37,1.59c.14.17.28.15.51.1l.13-.03.14.56-.28.07c-.52.13-.69.1-1-.26l-1.37-1.6c-.26-.29-.39-.31-.74-.22l-1.07.27.67,2.69-.64.16-1.45-5.83Zm2.7,2.06c.76-.19,1.11-.81.91-1.61-.2-.79-.79-1.15-1.54-.97l-1.43.36.64,2.57,1.42-.35Z"/><path class="cls-1" d="m24.58,59.23l-.6.1-.1-.57,3.71-.65c.4-.07.59.07.66.46l.11.65-.61.11-.08-.43c-.02-.14-.11-.19-.24-.17l-2.21.39.41,2.36,2.44-.42.1.57-2.44.42.38,2.21c.02.14.11.19.24.17l2.28-.4c.13-.02.19-.1.17-.24l-.08-.43.6-.1.11.65c.07.4-.07.59-.46.66l-2.81.49c-.4.07-.59-.07-.66-.46l-.93-5.35Z"/><path class="cls-1" d="m32.61,57.38c1.52-.16,2.37.57,2.37.57l-.33.52s-.8-.6-1.97-.47c-1.47.15-2.48,1.45-2.32,3.03.17,1.61,1.4,2.67,2.88,2.52,1.3-.13,1.97-1.17,1.97-1.17l-.08-.81c-.01-.14-.1-.2-.23-.18l-.4.04-.06-.58.65-.07c.4-.04.59.11.63.51l.26,2.49-.6.06-.05-.49c-.01-.14-.02-.28-.02-.28h-.02s-.67.97-2.05,1.11c-1.79.18-3.35-1.1-3.56-3.07-.19-1.88,1.07-3.52,2.92-3.71Z"/><path class="cls-1" d="m36.79,63.17l.62-.03-.28-5.42-.62.03-.03-.58,1.88-.1.03.58-.63.03.28,5.42.63-.03.03.58-1.88.1-.03-.58Z"/><path class="cls-1" d="m39.8,62.3s.67.8,1.71.79c.72,0,1.3-.48,1.29-1.19-.02-1.63-3.27-1.26-3.29-3.31-.01-.92.78-1.7,1.99-1.71.64,0,1.78.25,1.79,1.11v.47s-.61,0-.61,0v-.31c0-.39-.55-.68-1.16-.67-.85.01-1.34.51-1.34,1.07.02,1.53,3.26,1.11,3.29,3.29.01.98-.74,1.83-1.97,1.84-1.35.02-2.1-.91-2.1-.91l.4-.48Z"/><path class="cls-1" d="m46.66,57.65l-1.63-.07c-.13,0-.21.05-.21.2l-.02.44-.6-.02.03-.69c.02-.4.15-.53.56-.51l4.45.18c.4.02.53.15.51.56l-.03.69-.61-.03.02-.44c0-.15-.06-.21-.2-.21l-1.62-.07-.25,6-.65-.03.25-6Z"/><path class="cls-1" d="m51.12,57.9l-.61-.06.05-.58,3.75.35c.4.04.55.22.52.62l-.06.65-.62-.06.04-.44c.01-.14-.06-.21-.19-.22l-2.24-.21-.22,2.39,2.46.23-.05.58-2.46-.23-.21,2.23c-.01.14.06.21.19.22l2.3.22c.13.01.21-.05.22-.19l.04-.44.61.06-.06.65c-.04.4-.22.55-.62.52l-2.84-.27c-.4-.04-.55-.22-.52-.62l.51-5.41Z"/><path class="cls-1" d="m56.54,58.46l-.6-.09.08-.57,2.76.4c1.09.16,1.77.99,1.6,2.13-.15,1.01-.85,1.51-1.51,1.56v.02s.12.09.18.29l.67,1.99c.06.21.2.25.43.28l.13.02-.08.57-.29-.04c-.53-.08-.68-.16-.83-.62l-.67-2c-.13-.37-.24-.43-.6-.48l-1.09-.16-.4,2.74-.65-.09.86-5.94Zm1.71,2.93c.78.11,1.33-.33,1.45-1.14.12-.81-.29-1.37-1.06-1.48l-1.46-.21-.38,2.62,1.45.21Z"/><path class="cls-1" d="m62.35,59.37l-.6-.12.11-.57,3.7.72c.4.08.53.28.45.67l-.13.64-.61-.12.08-.43c.03-.14-.03-.22-.16-.24l-2.21-.43-.46,2.35,2.43.47-.11.57-2.43-.47-.43,2.2c-.03.14.03.22.16.24l2.27.44c.13.03.21-.02.24-.16l.08-.43.6.12-.13.64c-.08.4-.28.53-.67.45l-2.79-.55c-.4-.08-.53-.28-.45-.67l1.04-5.33Z"/><path class="cls-1" d="m67.7,60.45l-.59-.15.14-.56,2.56.64c1.93.48,2.92,1.97,2.41,3.99-.51,2.04-2.08,2.88-4.01,2.4l-1.42-.35c-.39-.1-.51-.3-.42-.69l1.32-5.27Zm-.48,5.47l1.07.27c1.57.39,2.84-.28,3.27-1.98.42-1.7-.39-2.89-1.95-3.28l-1.27-.32-1.26,5.06c-.03.14.02.22.15.25Z"/><path class="cls-1" d="m27.84,37.35h-1.21v-2.07h5.93c2.42,0,4.12,1.49,4.12,3.99s-1.64,3.37-2.2,3.48v.04s.41.19.65.67l1.29,2.55c.21.39.52.43.93.43h.24v2.07h-1.29c-.99,0-1.42-.15-1.84-.99l-1.69-3.34c-.28-.52-.56-.61-1.25-.61h-1.23v4.94h-2.44v-11.16Zm4.38,4.14c1.23,0,1.96-.76,1.96-2.09s-.73-2.05-1.92-2.05h-1.98v4.14h1.94Z"/><path class="cls-1" d="m39.61,37.35h-1.21v-2.07h7.99c.88,0,1.27.39,1.27,1.27v2.01h-2.22v-.8c0-.26-.15-.41-.41-.41h-2.98v3.47h4.29v2.07h-4.29v3.15c0,.26.15.41.41.41h3.06c.26,0,.41-.15.41-.41v-.8h2.22v2.01c0,.89-.39,1.27-1.27,1.27h-6c-.89,0-1.27-.37-1.27-1.27v-9.89Z"/><path class="cls-1" d="m48.74,46.45h.3c.32,0,.47-.07.58-.41l3.93-10.75h2.55l3.91,10.75c.11.33.26.41.58.41h.3v2.07h-1.45c-.93,0-1.27-.24-1.57-1.08l-.82-2.31h-4.47l-.82,2.31c-.3.84-.62,1.08-1.55,1.08h-1.47v-2.07Zm7.75-3.34l-1.14-3.32c-.24-.73-.52-1.97-.52-1.97h-.04s-.28,1.25-.52,1.97l-1.14,3.32h3.35Z"/><path class="cls-6" d="m70.33,73.4c.11,0,.2.02.28.05s.14.09.19.15.07.14.07.22h-.26c0-.06-.04-.11-.09-.15-.05-.04-.11-.05-.19-.05-.06,0-.1,0-.14.03s-.07.04-.09.07-.03.06-.03.1c0,.03,0,.06.02.08s.03.04.06.06.05.03.08.04.06.02.09.03l.14.03c.06.01.11.03.16.05.05.02.1.05.14.08.04.03.07.07.1.12.02.05.04.1.04.17,0,.09-.02.16-.07.23-.04.07-.11.12-.19.15s-.19.06-.3.06-.22-.02-.3-.05-.15-.09-.2-.16c-.05-.07-.07-.15-.08-.25h.26c0,.05.02.09.05.13.03.03.06.06.11.08.05.02.1.03.15.03s.11,0,.15-.03c.04-.02.08-.04.1-.07.02-.03.04-.07.04-.11,0-.04-.01-.07-.03-.1-.02-.03-.05-.05-.09-.06-.04-.02-.09-.03-.14-.05l-.17-.04c-.12-.03-.22-.08-.29-.14-.07-.06-.11-.15-.11-.26,0-.09.02-.16.07-.23.05-.07.11-.12.19-.15.08-.04.17-.05.28-.05"/><path class="cls-6" d="m72.62,73.42v1.48h-.26v-1.02h-.01l-.41,1.01h-.19l-.41-1.02h-.01v1.02h-.26v-1.48h.33l.44,1.07h.02l.44-1.07h.33"/></svg>